<?xml version="1.0" encoding="utf-8"?><!-- Uploaded to: SVG Repo, www.svgrepo.com, Generator: SVG Repo Mixer Tools -->
<svg fill="#000000" width="800px" height="800px" viewBox="0 0 24 24" id="protected-file-2" data-name="Flat Color" xmlns="http://www.w3.org/2000/svg" class="icon flat-color"><path id="primary" d="M16,22H4a2,2,0,0,1-2-2V4A2,2,0,0,1,4,2H15a1,1,0,0,1,.71.29l2,2A1,1,0,0,1,18,5V20A2,2,0,0,1,16,22Z" style="fill: rgb(0, 0, 0);"></path><path id="secondary" d="M22,13c0,4.91-.7,7.5-4.66,8.94a1,1,0,0,1-.68,0C12.7,20.5,12,17.91,12,13a1,1,0,0,1,.76-1l4-1a1,1,0,0,1,.48,0l4,1A1,1,0,0,1,22,13ZM15,4a1,1,0,0,0,1,1h2a1,1,0,0,0-.28-.71l-2-2A1,1,0,0,0,15,2Z" style="fill: rgb(44, 169, 188);"></path></svg>